# xmcd
#
# Track frame offsets: 
#        150
#        11768
#        23077
#        34583
#        45941
#        56277
#        67784
#        77410
#        89248
#        99323
#        108670
#        120043
#        129269
#        140095
#        150554
#        160640
#        170475
#        179523
#        191747
#        199620
#        208289
#
# Disc length: 2916 seconds
#
# Revision: 1
# Processed by: cddbd v1.5.2PL0 Copyright (c) Steve Scherf et al.
# Submitted via: ExactAudioCopyFreeDBPlugin 1.0
#
DISCID=0b0b6215
DTITLE=Various Artist - Heavy Jelly
DYEAR=2009
DGENRE=Blues
TTITLE0=Steve Rowland - Out ridin
TTITLE1=The Parkays - Get it
TTITLE2=Mark III Trio - Good grease
TTITLE3=The Roller Coasters - Rimshot Pt II
TTITLE4=Hoochie and The Coochie Coos - Skee-Mo
TTITLE5=Baby Earl and The Trinidads - Backslop
TTITLE6=Roosevelt Fountain - Red pepper Pt II
TTITLE7=Ernie Fields - Things ain't what they used to be
TTITLE8=Rudy and The Reno Bop's - Rudy's monkey
TTITLE9=The Impellas - Hook-em
TTITLE10=The Gone All Stars - 7-11
TTITLE11=David Rockingham Trio - Bee dee
TTITLE12=Les Drivers - Good Gully
TTITLE13=Big Jay Mc Neely - Big Jay shuffle
TTITLE14=Wild Bill Davis - Blues for Barbara
TTITLE15=The Noc-A-Bouts - Jungle Safari
TTITLE16=Gene The Hat - Hush puppy
TTITLE17=The Red Tops - Mustard
TTITLE18=Ron Rose - Bowling ball boogie
TTITLE19=Pancho Villa - Baby cakes
TTITLE20=Ken Kash Kwintet - Vicious Vodka
EXTD=Dr Boogie presents HEAVY JELLY - essential instrumentals\nThis co
EXTD=mpilation is entirely made on the basis of original 45s.
EXTT0=
EXTT1=
EXTT2=
EXTT3=
EXTT4=
EXTT5=
EXTT6=
EXTT7=
EXTT8=
EXTT9=
EXTT10=
EXTT11=
EXTT12=
EXTT13=
EXTT14=
EXTT15=
EXTT16=
EXTT17=
EXTT18=
EXTT19=
EXTT20=
PLAYORDER=
